<?xml version="1.0" encoding="utf-8"?>
<svg version="1.1" xmlns="http://www.w3.org/2000/svg" x="0px" y="0px" viewBox="0 0 25 25">
    <line fill="none" stroke="#000000" stroke-width="2" stroke-miterlimit="10" x1="16.4" y1="7.4" x2="11.3" y2="1.6"/>
    <polygon fill="#000000" stroke="#000000" stroke-miterlimit="10" points="0.5,20.5 0.5,7.3 21.6,7.3 24.5,17.1 24.5,20.5 "/>
    <polygon fill="#FFFFFF" points="24,17 19,17 19,8.5 21.3,8.5 "/>
    <rect x="14" y="8.5" fill="#FFFFFF" width="4" height="8.5"/>
    <rect x="6.8" y="8.5" fill="#FFFFFF" width="5.3" height="6"/>
    <rect x="0" y="8.5" fill="#FFFFFF" width="5.4" height="6"/>
    <path fill="#000000" d="M18.3,22.7c0,1.3-1.2,2.3-2.6,2.3S13,24,13,22.7"/>
    <path fill="#000000" d="M11.5,22.7c0,1.3-1.2,2.3-2.6,2.3s-2.7-1-2.7-2.3"/>
</svg>
