<?xml version="1.0" encoding="utf-8"?>
<!-- Generator: Adobe Illustrator 20.1.0, SVG Export Plug-In . SVG Version: 6.00 Build 0)  -->
<svg version="1.1" id="Layer_1" xmlns="http://www.w3.org/2000/svg" xmlns:xlink="http://www.w3.org/1999/xlink" x="0px" y="0px"
	 viewBox="0 0 25 25" style="enable-background:new 0 0 25 25;" xml:space="preserve">
<path d="M11.5,23C11.5,23.1,11.5,23.1,11.5,23c-0.5,1.3-1.4,2-2.7,2s-2.2-0.6-2.6-1.9V23c0-0.2,0.1-0.3,0.3-0.3h4.7
	C11.4,22.7,11.5,22.8,11.5,23z M18.3,23L18.3,23c-0.5,1.3-1.3,2-2.6,2s-2.2-0.6-2.6-1.9V23c0-0.2,0.1-0.3,0.2-0.3h4.8
	C18.3,22.7,18.3,22.8,18.3,23z M25,16.4v4.5c0,0.3-0.1,0.4-0.4,0.4H0l0-6.5h5c0.3,0,0.4-0.1,0.4-0.4V8.5c0-0.3-0.1-0.4-0.4-0.4H0
	l0-1.3h14.9l-3.7-4.2C11.1,2.6,11,2.4,11,2.2c0-0.5,0.3-0.8,0.8-0.8c0.2,0,0.4,0.1,0.5,0.2l4.6,5.3h3.1c1.2-0.1,2,0.3,2.3,0.9
	L25,16.4z M13.7,8.5c0-0.3-0.2-0.4-0.5-0.4h-6c-0.3,0-0.4,0.1-0.4,0.4v5.9c0,0.3,0.1,0.4,0.4,0.4h6c0.3,0,0.5-0.1,0.5-0.4V8.5z
	 M18.6,16.2V8.7c0-0.4-0.2-0.5-0.6-0.5h-2.3c-0.4,0-0.6,0.2-0.6,0.5v7.5c0,0.4,0.2,0.6,0.7,0.6h2.2C18.4,16.8,18.6,16.6,18.6,16.2z
	 M23.5,16.3L21,8.4c-0.1-0.2-0.2-0.2-0.3-0.2h-0.3c-0.3,0-0.5,0.1-0.5,0.4v7.9c0,0.3,0.2,0.4,0.5,0.4h2.7c0.3,0,0.4-0.1,0.4-0.4
	V16.3L23.5,16.3z"/>
</svg>
